Coordinates
version=1
nRows=18
nColumns=38
inDegrees=yes

Units are S.I. units (second, meters, Newtons, ...)
Angles are in degrees.

endheader
time	pelvis_tilt	pelvis_list	pelvis_rotation	pelvis_tx	pelvis_ty	pelvis_tz	hip_flexion_r	hip_adduction_r	hip_rotation_r	knee_angle_r	ankle_angle_r	subtalar_angle_r	mtp_angle_r	hip_flexion_l	hip_adduction_l	hip_rotation_l	knee_angle_l	ankle_angle_l	subtalar_angle_l	mtp_angle_l	lumbar_extension	lumbar_bending	lumbar_rotation	arm_flex_r	arm_add_r	arm_rot_r	elbow_flex_r	pro_sup_r	wrist_flex_r	wrist_dev_r	arm_flex_l	arm_add_l	arm_rot_l	elbow_flex_l	pro_sup_l	wrist_flex_l	wrist_dev_l
      1.60000000	     -2.07699799	      0.67017040	      1.02590882	      0.45024475	      0.97017264	     -0.24462093	      5.45139819	      3.04817825	     -5.95852621	    -19.96750199	     15.41907728	     -5.51782475	      0.00000000	     25.32268142	     -4.78848107	    -13.67404797	    -41.06913076	      8.44367552	    -16.38510434	      0.00000000	     -0.89677102	     -2.09056645	     -2.42456348	     11.44073678	     -9.52892726	     53.77388034	     27.58259088	     41.44534203	      0.00000000	      0.00000000	      1.15135911	     -9.68762969	     48.58233394	     21.19182241	     41.44534203	      0.00000000	      0.00000000
      1.61000000	     -2.00162994	      0.65837408	      0.77063011	      0.46063952	      0.96970531	     -0.24420731	      4.57625151	      3.07403342	     -5.90899945	    -19.76120205	     15.87448153	     -5.23897898	      0.00000000	     25.42015614	     -4.50595434	    -13.54903214	    -37.79521050	      8.64224802	    -15.16020968	      0.00000000	     -1.06220391	     -2.06969278	     -2.18899337	     12.18039795	     -9.69103260	     53.78239290	     27.83383780	     41.47413038	      0.00000000	      0.00000000	      0.72195510	     -9.72506449	     48.50434838	     21.07105162	     41.47413038	      0.00000000	      0.00000000
      1.62000000	     -1.96423135	      0.57216834	      0.47371662	      0.47116407	      0.96897087	     -0.24373244	      3.78520016	      3.16086452	     -6.14627432	    -19.62906754	     16.30816127	     -4.85086169	      0.00000000	     25.48950837	     -4.35299152	    -13.77492549	    -34.44504756	      8.64483421	    -13.95444176	      0.00000000	     -1.15934013	     -1.96979263	     -1.87399863	     12.85225252	     -9.90958015	     53.84068442	     28.21351396	     41.51409256	      0.00000000	      0.00000000	      0.37940196	     -9.73244289	     48.36232787	     20.93684558	     41.51409256	      0.00000000	      0.00000000
      1.63000000	     -1.98083731	      0.39844464	      0.17395359	      0.48157998	      0.96801887	     -0.24326972	      3.07037512	      3.33921474	     -6.29542352	    -19.54437456	     16.64259859	     -4.50944144	      0.00000000	     25.66224610	     -4.22457074	    -13.74137583	    -31.21309422	      8.52719973	    -12.91115684	      0.00000000	     -1.21339449	     -1.77492575	     -1.52465742	     13.50568551	    -10.13476451	     53.82477281	     28.46926905	     41.53710788	      0.00000000	      0.00000000	      0.04977694	     -9.70977868	     48.28740059	     20.84734509	     41.53710788	      0.00000000	      0.00000000
      1.64000000	     -1.81718366	      0.37403555	     -0.14496477	      0.49216119	      0.96719019	     -0.24281899	      2.16011707	      3.29647762	     -6.60846684	    -19.50110816	     17.25882427	     -3.72781434	      0.00000000	     25.53454176	     -4.01392322	    -14.16505248	    -27.94750521	      8.42029644	    -11.45532477	      0.00000000	     -1.47756051	     -1.75340167	     -1.22380192	     14.10078864	    -10.37880107	     53.89895840	     29.09273853	     41.59532639	      0.00000000	      0.00000000	     -0.21636700	     -9.71462251	     48.04213639	     20.69527310	     41.59532639	      0.00000000	      0.00000000
      1.65000000	     -1.70701351	      0.30252895	     -0.45337865	      0.50286309	      0.96612574	     -0.24236847	      1.31662765	      3.31592034	     -6.84424167	    -19.49210610	     17.78290566	     -3.21162272	      0.00000000	     25.45839430	     -3.78166456	    -14.29545755	    -24.77729022	      8.25914102	     -9.98697256	      0.00000000	     -1.66981503	     -1.68885478	     -0.94933513	     14.67294944	    -10.56492418	     53.86756559	     29.49862430	     41.63434144	      0.00000000	      0.00000000	     -0.58553953	     -9.73785528	     47.87085044	     20.54277737	     41.63434144	      0.00000000	      0.00000000
      1.66000000	     -1.59292157	      0.29449026	     -0.82152745	      0.51353886	      0.96493972	     -0.24191710	      0.48345172	      3.25990183	     -6.98325388	    -19.52824892	     18.32955682	     -2.62180561	      0.00000000	     25.39853685	     -3.50873853	    -14.84318239	    -21.80558126	      8.18501224	     -8.49527149	      0.00000000	     -1.87048608	     -1.68806046	     -0.60145676	     15.19112158	    -10.72190052	     53.80546203	     29.91913898	     41.67541408	      0.00000000	      0.00000000	     -0.84176628	     -9.74149154	     47.68377314	     20.42702214	     41.67541408	      0.00000000	      0.00000000
      1.67000000	     -1.51531494	      0.33173754	     -1.17427349	      0.52436479	      0.96359911	     -0.24155822	     -0.27433009	      3.13218245	     -7.20097073	    -19.63487814	     18.84647798	     -2.13693157	      0.00000000	     25.36190766	     -3.13461798	    -15.22536732	    -19.01782113	      8.34726982	     -7.00788397	      0.00000000	     -2.00717081	     -1.75051837	     -0.26300822	     15.67235138	    -10.84178393	     53.70690813	     30.26414650	     41.70949490	      0.00000000	      0.00000000	     -1.13393537	     -9.74204431	     47.53560649	     20.33348571	     41.70949490	      0.00000000	      0.00000000
      1.68000000	     -1.44195328	      0.46725693	     -1.58483480	      0.53527381	      0.96203936	     -0.24123755	     -0.86342814	      2.69762331	     -8.08453837	    -20.13247417	     19.78322636	     -0.30532412	      0.00000000	     25.48664856	     -2.83022413	    -16.66390034	    -16.77777519	      9.21118006	     -4.40115526	      0.00000000	     -2.14249912	     -1.92734313	      0.10748881	     15.97699002	    -11.09708794	     53.29467483	     31.25936593	     41.85074368	      0.00000000	      0.00000000	     -1.40720424	     -9.70839887	     46.90316601	     20.23057663	     41.85074368	      0.00000000	      0.00000000
      1.69000000	     -1.31905075	      0.65518984	     -2.01582874	      0.54634628	      0.96065499	     -0.24092619	     -1.70411829	      2.40712486	     -7.92819519	    -20.18979235	     20.27902659	     -0.08894036	      0.00000000	     25.22645868	     -2.23213674	    -16.90692279	    -13.99052799	      9.63176932	     -2.97678773	      0.00000000	     -2.31750753	     -2.16748393	      0.46375752	     16.38289234	    -11.08796547	     53.10766761	     31.46000652	     41.88215091	      0.00000000	      0.00000000	     -1.71149768	     -9.74715059	     46.78752093	     20.17961783	     41.88215091	      0.00000000	      0.00000000
      1.70000000	     -1.32410973	      0.71396882	     -2.39009065	      0.55726582	      0.95885871	     -0.24065930	     -2.30623153	      2.21774199	     -8.00434038	    -20.46038540	     20.76292367	      0.29011708	      0.00000000	     25.07289866	     -1.78595400	    -16.72086296	    -11.35477291	     10.14886075	     -1.45743760	      0.00000000	     -2.37400606	     -2.26711458	      0.75616225	     16.75237870	    -11.07563957	     52.93810463	     31.63420666	     41.90716553	      0.00000000	      0.00000000	     -1.97116199	     -9.77209869	     46.68754952	     20.11989744	     41.90716553	      0.00000000	      0.00000000
      1.71000000	     -1.29649965	      1.15320741	     -2.76627141	      0.56817341	      0.95708707	     -0.24084642	     -2.72153917	      1.28979011	     -9.17778537	    -21.19870239	     21.76246129	      2.48003962	      0.00000000	     24.80034367	     -0.92405147	    -15.54260053	     -8.84639740	     10.40992445	     -0.76704184	      0.00000000	     -2.45417868	     -2.77107100	      1.05223690	     16.96546149	    -11.06259309	     52.15050745	     32.21343100	     42.04800795	      0.00000000	      0.00000000	     -2.15945531	     -9.76845748	     46.07044666	     20.05282245	     42.04800795	      0.00000000	      0.00000000
      1.72000000	     -1.23278954	      1.46525712	     -3.08540009	      0.57916753	      0.95529383	     -0.24120117	     -3.22614811	      0.58703067	     -9.94299404	    -21.84946145	     22.37861178	      4.05887524	      0.00000000	     24.61637649	     -0.29219895	    -14.62392688	     -6.90999720	     10.45352604	     -0.34832562	      0.00000000	     -2.58688844	     -3.12830646	      1.25164427	     17.08645625	    -11.00679335	     51.09419654	     32.77260751	     42.23822884	      0.00000000	      0.00000000	     -2.41176154	     -9.76894408	     45.36020927	     20.11644860	     42.23822884	      0.00000000	      0.00000000
      1.73000000	     -1.30115434	      1.49982867	     -3.34610473	      0.59014633	      0.95331850	     -0.24148370	     -3.72242611	      0.41387149	     -9.82648795	    -22.15186300	     22.66158763	      4.06711033	      0.00000000	     24.88913265	     -0.04957869	    -14.44954750	     -6.03036238	     10.63097593	      0.11577176	      0.00000000	     -2.56346078	     -3.17366263	      1.45090187	     17.39418345	    -10.95252904	     51.00962329	     32.85536102	     42.24772807	      0.00000000	      0.00000000	     -2.56030065	     -9.75208017	     45.33383852	     20.09073974	     42.24772807	      0.00000000	      0.00000000
      1.74000000	     -1.20677187	      1.69361070	     -3.64853871	      0.60129030	      0.95166584	     -0.24175445	     -4.27389503	      0.01886926	     -9.68773381	    -22.68907458	     22.91225396	      4.17497959	      0.00000000	     24.92535036	      0.30172023	    -14.88453956	     -5.41495762	     10.49000916	      0.34136205	      0.00000000	     -2.73155909	     -3.42352385	      1.52546492	     17.60300235	    -10.80706455	     50.89457220	     32.99877621	     42.26539105	      0.00000000	      0.00000000	     -2.78169431	     -9.75358773	     45.26560364	     20.00930858	     42.26539105	      0.00000000	      0.00000000
      1.75000000	     -1.29476242	      1.64354614	     -3.74561634	      0.61258789	      0.94981751	     -0.24214557	     -4.77342303	     -0.03902411	     -9.67265815	    -22.98494928	     22.89427534	      4.17490538	      0.00000000	     25.22689716	      0.39678021	    -14.85880840	     -5.36825076	     10.43372783	      0.36999137	      0.00000000	     -2.66905590	     -3.40358142	      1.57361136	     17.63460603	    -10.78304054	     50.88741485	     33.01259086	     42.26631958	      0.00000000	      0.00000000	     -2.79780936	     -9.75802789	     45.26119223	     20.00149819	     42.26631958	      0.00000000	      0.00000000
      1.76000000	     -1.20354294	      2.03413884	     -3.97847833	      0.62394164	      0.94818249	     -0.24275142	     -5.07290097	     -0.90344884	    -10.33726615	    -24.09800531	     23.30686137	      5.71061379	      0.00000000	     25.47103764	      0.83548393	    -14.55534295	     -5.95269958	      9.91377288	     -0.24991388	      0.00000000	     -2.83238140	     -3.90495194	      1.62043065	     17.75980888	    -10.47494739	     50.02111179	     33.18021091	     42.39112819	      0.00000000	      0.00000000	     -2.91343758	     -9.62627150	     44.64503215	     19.55567198	     42.39112819	      0.00000000	      0.00000000
      1.77000000	     -1.17992387	      2.10817362	     -4.14938792	      0.63558761	      0.94665816	     -0.24333281	     -5.45328116	     -1.21056819	    -10.36745609	    -24.86471650	     23.07586510	      5.79963672	      0.00000000	     25.47061422	      1.09944427	    -12.73178608	     -6.32684744	      9.32685037	     -3.23158085	      0.00000000	     -2.89626813	     -4.03044906	      1.69049785	     17.55068383	    -10.11147150	     48.64793963	     33.45718542	     42.59228390	      0.00000000	      0.00000000	     -3.08916913	     -9.53662670	     43.96640186	     19.49953667	     42.59228390	      0.00000000	      0.00000000
